<svg width="150" height="157" viewBox="0 0 150 157" fill="none" xmlns="http://www.w3.org/2000/svg">
<g clip-path="url(#clip0)">
<path d="M11.3425 113.178C17.4006 119.236 25.5415 121.866 33.2064 125.223C41.1212 128.686 46.9174 133.863 53.0112 139.85C65.2821 151.907 79.493 157.108 96.7508 155.477C105.677 154.632 114.58 152.24 122.721 148.467" stroke="#179BBF" stroke-miterlimit="10" stroke-linecap="round"/>
<path d="M42.3947 35.5653C32.6232 40.8498 21.5544 44.0871 13.1517 51.3473C3.68964 59.5477 -1.30917 72.6279 0.297586 85.0417C1.89244 97.4554 10.0334 108.846 21.2688 114.38C29.4573 118.415 37.7768 119.95 44.7989 126.103C51.2021 131.721 56.6532 138.505 63.9491 143.052C70.8046 147.336 78.9217 149.336 86.9912 149.633C106.284 150.348 130.671 143.171 142.621 126.996C147.477 120.426 149.548 112.119 149.929 103.954C150.476 92.4923 147.87 80.9117 142.49 70.7831C137.324 61.0593 129.91 52.7398 123.863 43.5753C118.638 35.6606 117.413 25.2345 111.331 18.01C107.617 13.5825 101.964 11.095 96.239 10.3214C88.11 9.22638 79.3621 10.845 71.9948 14.3799C60.8308 19.7358 53.1898 29.7215 42.3947 35.5653Z" fill="#179BBF"/>
<path d="M125.827 36.4104C127.291 38.648 129.16 40.7427 131.623 41.7663C134.992 43.1707 139.027 42.278 141.942 40.0762C146.263 36.8032 149.036 30.8046 147.263 25.4844C145.632 20.5689 140.836 17.2602 136.122 15.8558C133.111 14.9631 129.91 14.6418 126.779 14.5466C125.149 14.4989 123.375 14.856 122.34 16.1176C121.495 17.1412 121.316 18.5456 121.269 19.8667C121.031 25.663 122.649 31.5306 125.827 36.4104Z" fill="#179BBF"/>
<path d="M89.0264 78.7218L81.5996 78.5909C79.2549 78.5551 77.4577 76.7937 77.5649 74.6513L77.9814 66.189C78.0885 63.9396 80.1476 62.0829 82.5756 62.071L90.3118 62.0353C92.8112 62.0234 94.6917 63.9039 94.4894 66.2009L93.7396 74.8536C93.5491 77.0317 91.4306 78.7575 89.0264 78.7218Z" stroke="white" stroke-miterlimit="10"/>
<path d="M98.4409 65.5582L122.483 66.1057" stroke="white" stroke-miterlimit="10" stroke-linecap="round"/>
<path d="M98.4646 69.5097L122.506 70.0453" stroke="white" stroke-miterlimit="10" stroke-linecap="round"/>
<path d="M98.4885 73.4611L110.509 73.7349" stroke="white" stroke-miterlimit="10" stroke-linecap="round"/>
<path d="M88.836 103.121L81.4092 102.99C79.0645 102.954 77.2673 101.193 77.3744 99.0502L77.791 90.588C77.8981 88.3385 79.9571 86.4818 82.3851 86.4699L90.1214 86.4342C92.6208 86.4223 94.5013 88.3028 94.299 90.5999L93.5491 99.2526C93.3468 101.443 91.2402 103.168 88.836 103.121Z" stroke="white" stroke-miterlimit="10"/>
<path d="M98.2505 89.9691L122.292 90.5046" stroke="white" stroke-miterlimit="10" stroke-linecap="round"/>
<path d="M98.2742 93.9205L122.316 94.4561" stroke="white" stroke-miterlimit="10" stroke-linecap="round"/>
<path d="M98.2981 97.8719L110.319 98.1338" stroke="white" stroke-miterlimit="10" stroke-linecap="round"/>
<path d="M87.253 126.544L79.8262 126.413C77.4815 126.377 75.6843 124.616 75.7914 122.473L76.208 114.011C76.3151 111.761 78.3741 109.905 80.8021 109.893L88.5384 109.845C91.0378 109.833 92.9183 111.714 92.716 114.011L91.9661 122.664C91.7638 124.854 89.6572 126.579 87.253 126.544Z" stroke="white" stroke-miterlimit="10"/>
<path d="M121.459 134.708L72.578 134.197C69.1502 134.161 66.5318 131.316 66.7341 127.841L72.5661 24.9964C72.7565 21.6282 75.6487 18.9146 79.0169 18.9146H127.089C130.493 18.9146 133.123 21.652 132.956 25.0321L128.029 128.448C127.862 131.947 124.923 134.744 121.459 134.708Z" stroke="#404FD2" stroke-miterlimit="10"/>
<path d="M43.2041 59.0597L46.7152 57.2625L42.49 51.2878L43.2041 59.0597Z" fill="#FF7FBD"/>
<path d="M82.5281 80.6617L85.8011 65.1654L87.8482 65.6772L87.2293 70.6998L91.2403 73.0445C92.0972 73.5444 92.5614 74.5203 92.4186 75.4963L91.9782 78.5194L85.8963 86.577L82.5281 80.6617Z" fill="white"/>
<path d="M42.7161 46.646L45.2869 66.1057L39.574 68.5575L41.0498 76.2461L24.7561 78.2218L24.5538 68.7836L16.5557 42.3018L43.0494 35.9938L42.7161 46.646Z" fill="white"/>
<path d="M23.8515 68.8669L33.6468 67.7362L35.0393 60.1309L37.8362 48.598L42.716 46.646C42.716 46.646 48.3337 38.5884 43.0493 35.9938C37.7529 33.3992 19.1978 36.2676 16.5556 42.3018C13.9015 48.3361 23.8515 68.8669 23.8515 68.8669Z" fill="#404FD2"/>
<path d="M38.7526 57.2625C38.7526 59.0716 37.2887 60.5356 35.4796 60.5356C33.6705 60.5356 32.2065 59.0716 32.2065 57.2625C32.2065 55.4534 33.6705 53.9895 35.4796 53.9895C37.2887 53.9895 38.7526 55.4534 38.7526 57.2625Z" fill="white"/>
<path d="M17.5552 88.3623L17.5195 142.242L51.9161 141.79L53.1182 112.595L54.2251 85.7915C53.4396 79.3168 47.56 74.7108 41.0854 75.4963L26.6483 77.2459C21.1377 77.9124 17.1149 82.816 17.5552 88.3623Z" fill="#F4CEA8"/>
<path d="M82.528 80.0785C82.3376 80.2333 82.1471 80.3642 81.9686 80.5308L69.2335 93.2659L49.7977 77.2935C47.0365 75.0202 42.9422 75.4249 40.6689 78.1861C38.3957 80.9474 38.8003 85.0416 41.5616 87.3149L65.544 107.025C66.746 108.012 68.1981 108.5 69.662 108.5C71.3283 108.5 72.9827 107.858 74.2443 106.596L91.0974 89.7429C88.2647 86.5056 85.4916 83.2088 82.528 80.0785Z" fill="#404FD2"/>
<path d="M90.4427 54.3109L83.0159 54.18C80.6712 54.1443 78.874 52.3828 78.9811 50.2404L79.3977 41.7782C79.5048 39.5287 81.5638 37.672 83.9918 37.6601L91.7281 37.6244C94.2275 37.6125 96.108 39.493 95.9057 41.7901L95.1558 50.4428C94.9654 52.6208 92.8469 54.3466 90.4427 54.3109Z" stroke="white" stroke-miterlimit="10"/>
<path d="M99.8572 41.1474L123.911 41.6949" stroke="white" stroke-miterlimit="10" stroke-linecap="round"/>
<path d="M99.8809 45.0988L123.923 45.6344" stroke="white" stroke-miterlimit="10" stroke-linecap="round"/>
<path d="M99.9048 49.0502L111.926 49.324" stroke="white" stroke-miterlimit="10" stroke-linecap="round"/>
<path d="M72.5662 24.9964L132.957 25.0321" stroke="#404FD2" stroke-miterlimit="10"/>
<path d="M80.8973 21.7829C80.8973 22.3185 80.4689 22.747 79.9333 22.747C79.3977 22.747 78.9692 22.3185 78.9692 21.7829C78.9692 21.2473 79.3977 20.8188 79.9333 20.8188C80.4689 20.8188 80.8973 21.2473 80.8973 21.7829Z" fill="#003797"/>
<path d="M84.9679 21.7829C84.9679 22.3185 84.5394 22.747 84.0039 22.747C83.4683 22.747 83.0398 22.3185 83.0398 21.7829C83.0398 21.2473 83.4683 20.8188 84.0039 20.8188C84.5394 20.8188 84.9679 21.2473 84.9679 21.7829Z" fill="#003797"/>
<path d="M89.0385 21.7829C89.0385 22.3185 88.61 22.747 88.0744 22.747C87.5388 22.747 87.1104 22.3185 87.1104 21.7829C87.1104 21.2473 87.5388 20.8188 88.0744 20.8188C88.61 20.8188 89.0385 21.2473 89.0385 21.7829Z" fill="#003797"/>
<path d="M127.16 146.039C127.16 146.039 136.563 141.457 141.216 136.101" stroke="#179BBF" stroke-miterlimit="10" stroke-linecap="round"/>
</g>
<defs>
<clipPath id="clip0">
<rect width="150" height="146.358" fill="white" transform="translate(0 10)"/>
</clipPath>
</defs>
</svg>
